<svg width="100" height="100" viewBox="0 0 100 100" fill="none" xmlns="http://www.w3.org/2000/svg">
<g clip-path="url(#clip0)">
<path d="M28.928 76L20.72 29.2H33.392L35.984 49.648C36.224 52.096 36.488 54.544 36.776 56.992C37.064 59.44 37.328 61.888 37.568 64.336H37.856C38.288 61.888 38.72 59.44 39.152 56.992C39.584 54.544 40.016 52.096 40.448 49.648L44.912 29.2H55.28L59.744 49.648C60.176 52 60.608 54.424 61.04 56.92C61.472 59.368 61.904 61.84 62.336 64.336H62.624C62.864 61.84 63.128 59.368 63.416 56.92C63.704 54.472 63.968 52.048 64.208 49.648L66.8 29.2H78.608L70.832 76H55.136L51.536 57.424C51.152 55.6 50.816 53.752 50.528 51.88C50.288 50.008 50.048 48.208 49.808 46.48H49.52C49.28 48.208 49.016 50.008 48.728 51.88C48.488 53.752 48.176 55.6 47.792 57.424L44.336 76H28.928Z" fill="#2B57F3"/>
</g>
<defs>
<clipPath id="clip0">
<rect width="100" height="100" fill="white"/>
</clipPath>
</defs>
</svg>
