<svg width="81" height="80" viewBox="0 0 81 80" fill="none" xmlns="http://www.w3.org/2000/svg">
<g filter="url(#filter0_d)">
<rect x="4" y="11" width="54" height="65" rx="2" fill="white"/>
</g>
<circle cx="11" cy="16" r="2" fill="#E4E4E7"/>
<rect x="15" y="15" width="10" height="2" rx="0.5" fill="#E4E4E7"/>
<rect x="10" y="23" width="10" height="2" rx="0.5" fill="#E4E4E7"/>
<rect x="10" y="27" width="16" height="1" rx="0.5" fill="#E4E4E7"/>
<rect x="10" y="30" width="14" height="1" rx="0.5" fill="#E4E4E7"/>
<rect x="10" y="33" width="15" height="1" rx="0.5" fill="#E4E4E7"/>
<rect x="34" y="22" width="19" height="14" rx="2" fill="#E4E4E7"/>
<rect x="21" y="44" width="19" height="9" rx="2" fill="#E4E4E7"/>
<g filter="url(#filter1_d)">
<rect x="18" y="4.98145" width="59" height="71.0185" rx="2" fill="white"/>
</g>
<circle cx="25.6481" cy="10.4445" r="2.18519" fill="#E4E4E7"/>
<rect x="30.0186" y="9.35181" width="10.9259" height="2.18519" rx="0.5" fill="#E4E4E7"/>
<rect x="51" y="38" width="17.4815" height="1.09259" rx="0.5" fill="#E4E4E7"/>
<rect x="51" y="41.2778" width="15.2963" height="1.09259" rx="0.5" fill="#E4E4E7"/>
<rect x="51" y="44.5557" width="16.3889" height="1.09259" rx="0.5" fill="#E4E4E7"/>
<rect x="23" y="17" width="49" height="15" rx="2" fill="#E4E4E7"/>
<rect x="24" y="37" width="20.7593" height="9.83333" rx="2" fill="#E4E4E7"/>
<defs>
<filter id="filter0_d" x="0" y="7" width="62" height="73" filterUnits="userSpaceOnUse" color-interpolation-filters="sRGB">
<feFlood flood-opacity="0" result="BackgroundImageFix"/>
<feColorMatrix in="SourceAlpha" type="matrix" values="0 0 0 0 0 0 0 0 0 0 0 0 0 0 0 0 0 0 127 0"/>
<feOffset/>
<feGaussianBlur stdDeviation="2"/>
<feColorMatrix type="matrix" values="0 0 0 0 0 0 0 0 0 0 0 0 0 0 0 0 0 0 0.25 0"/>
<feBlend mode="normal" in2="BackgroundImageFix" result="effect1_dropShadow"/>
<feBlend mode="normal" in="SourceGraphic" in2="effect1_dropShadow" result="shape"/>
</filter>
<filter id="filter1_d" x="14" y="0.981445" width="67" height="79.0185" filterUnits="userSpaceOnUse" color-interpolation-filters="sRGB">
<feFlood flood-opacity="0" result="BackgroundImageFix"/>
<feColorMatrix in="SourceAlpha" type="matrix" values="0 0 0 0 0 0 0 0 0 0 0 0 0 0 0 0 0 0 127 0"/>
<feOffset/>
<feGaussianBlur stdDeviation="2"/>
<feColorMatrix type="matrix" values="0 0 0 0 0 0 0 0 0 0 0 0 0 0 0 0 0 0 0.25 0"/>
<feBlend mode="normal" in2="BackgroundImageFix" result="effect1_dropShadow"/>
<feBlend mode="normal" in="SourceGraphic" in2="effect1_dropShadow" result="shape"/>
</filter>
</defs>
</svg>
