<?xml version="1.0" standalone="no"?>
<!DOCTYPE svg PUBLIC "-//W3C//DTD SVG 20010904//EN"
 "http://www.w3.org/TR/2001/REC-SVG-20010904/DTD/svg10.dtd">
<svg version="1.0" xmlns="http://www.w3.org/2000/svg"
 width="700.000000pt" height="700.000000pt" viewBox="0 0 700.000000 700.000000"
 preserveAspectRatio="xMidYMid meet">
<metadata>
Created by potrace 1.11, written by Peter Selinger 2001-2013
</metadata>
<g transform="translate(0.000000,700.000000) scale(0.100000,-0.100000)"
fill="#000000" stroke="none">
<path d="M1455 4931 c2 -15 12 -66 20 -116 30 -173 56 -320 61 -345 2 -14 7
-41 9 -60 3 -19 10 -55 15 -80 5 -25 19 -99 30 -165 11 -66 22 -131 25 -145 3
-14 8 -41 11 -60 3 -19 14 -82 24 -140 11 -58 21 -118 23 -135 3 -16 19 -109
36 -205 17 -96 33 -193 36 -215 4 -22 8 -47 11 -56 2 -9 13 -68 24 -130 11
-63 21 -125 24 -139 3 -14 7 -41 10 -60 3 -19 8 -46 11 -60 6 -28 13 -65 20
-112 3 -18 10 -58 15 -88 5 -30 12 -71 15 -90 3 -19 12 -69 19 -110 28 -148
43 -234 52 -290 5 -34 13 -83 34 -193 5 -28 12 -65 15 -82 2 -16 7 -41 9 -55
3 -14 8 -43 11 -65 3 -22 9 -43 13 -47 5 -5 248 -7 542 -6 l534 3 8 35 c4 19
10 55 14 80 3 25 8 47 9 50 2 3 6 26 10 50 3 25 11 65 16 90 6 25 12 60 15 78
2 18 11 65 18 105 13 63 47 243 60 317 2 14 15 86 30 160 14 74 28 151 31 170
3 19 8 42 10 50 2 8 6 33 10 55 3 22 7 47 10 55 2 8 6 26 9 40 2 14 11 63 20
110 8 47 18 101 20 120 3 19 8 52 11 73 3 20 7 52 10 70 2 17 7 49 10 70 3 20
7 54 10 75 27 188 33 218 45 206 7 -8 13 -39 26 -144 2 -19 9 -66 14 -105 6
-38 12 -86 14 -105 4 -36 6 -46 31 -185 18 -101 65 -348 89 -465 5 -25 22
-114 31 -160 3 -14 9 -47 15 -75 5 -27 12 -61 14 -75 4 -21 17 -86 40 -205 2
-11 12 -60 21 -110 9 -49 18 -94 19 -100 2 -5 6 -28 10 -50 4 -22 16 -83 27
-135 10 -52 20 -106 22 -120 l4 -25 551 -3 c304 -1 552 1 552 4 0 3 30 184 66
402 37 219 68 410 70 426 2 16 15 93 28 170 14 78 28 159 31 181 3 22 10 65
15 95 15 83 17 93 44 260 14 85 28 166 30 180 3 14 28 165 56 335 28 171 53
322 55 338 3 15 7 39 10 55 5 35 13 78 20 120 3 17 7 44 10 60 2 15 13 83 25
152 12 69 23 137 25 153 3 15 7 39 10 55 2 15 13 82 25 150 11 68 19 126 16
131 -3 4 -188 7 -413 7 -401 -1 -408 -1 -409 -21 -1 -11 -6 -54 -13 -95 -6
-41 -13 -100 -16 -130 -3 -30 -8 -66 -10 -80 -2 -14 -9 -63 -15 -110 -6 -47
-13 -101 -16 -120 -2 -19 -7 -55 -9 -80 -3 -25 -7 -61 -10 -80 -3 -19 -7 -58
-10 -86 -3 -28 -7 -59 -9 -70 -2 -11 -7 -47 -11 -79 -4 -33 -8 -71 -10 -85
-11 -74 -55 -433 -59 -480 -7 -70 -16 -155 -22 -200 -2 -19 -9 -77 -14 -130
-6 -52 -15 -133 -21 -180 -6 -47 -12 -107 -15 -135 -2 -27 -6 -63 -8 -80 -3
-16 -8 -64 -12 -105 -9 -103 -9 -103 -21 -107 -6 -2 -14 15 -18 39 -13 86 -14
90 -30 168 -2 14 -7 41 -10 60 -3 19 -10 62 -16 95 -6 33 -13 74 -15 90 -3 17
-9 53 -15 80 -5 28 -12 68 -15 90 -3 22 -7 46 -10 54 -3 8 -7 30 -10 50 -3 20
-14 81 -24 136 -10 55 -21 116 -24 135 -4 19 -15 76 -26 125 -18 80 -53 240
-160 735 -18 80 -34 154 -36 165 -2 11 -24 112 -49 224 -25 112 -45 204 -45
205 0 5 -719 0 -723 -4 -4 -4 -95 -403 -111 -490 -3 -14 -14 -68 -26 -120 -12
-52 -24 -106 -26 -120 -3 -14 -10 -45 -15 -70 -16 -66 -12 -52 -83 -375 -35
-165 -67 -313 -69 -330 -5 -32 -56 -323 -87 -495 -11 -58 -22 -120 -25 -137
-8 -52 -13 -80 -35 -197 -11 -61 -20 -111 -20 -113 0 -2 -4 -3 -9 -3 -9 0 -16
39 -26 140 -13 134 -16 157 -20 185 -2 17 -7 57 -10 90 -4 33 -8 74 -10 90 -2
17 -7 57 -10 90 -4 33 -8 74 -10 90 -2 17 -11 100 -20 185 -20 191 -25 238
-30 270 -3 23 -11 79 -20 155 -2 17 -10 82 -19 145 -8 63 -17 138 -20 165 -3
28 -8 59 -10 70 -2 11 -7 47 -10 80 -4 33 -9 71 -11 85 -2 14 -6 52 -10 85 -4
33 -9 69 -10 80 -2 11 -6 43 -9 70 -4 28 -9 67 -11 88 -3 20 -7 56 -10 80 -18
149 -26 202 -32 207 -2 3 -202 5 -444 6 l-440 0 6 -25z"/>
</g>
</svg>
